<?xml version="1.0" encoding="UTF-8" standalone="no"?>
<!DOCTYPE svg PUBLIC "-//W3C//DTD SVG 1.1//EN"
 "http://www.w3.org/Graphics/SVG/1.1/DTD/svg11.dtd">
<!-- Generated by graphviz version 2.47.0 (20210316.0004)
 -->
<!-- Title: dependencies Pages: 1 -->
<svg width="874pt" height="290pt"
 viewBox="0.00 0.00 874.00 290.00" xmlns="http://www.w3.org/2000/svg" xmlns:xlink="http://www.w3.org/1999/xlink">
<g id="graph0" class="graph" transform="scale(1 1) rotate(0) translate(4 286)">
<title>dependencies</title>
<polygon fill="white" stroke="transparent" points="-4,4 -4,-286 870,-286 870,4 -4,4"/>
<text text-anchor="start" x="412.01" y="-42.4" font-family="Times-12" font-weight="bold" font-size="14.00">Legend</text>
<polygon fill="#ffffb3" stroke="transparent" points="199,-10 199,-30 219,-30 219,-10 199,-10"/>
<text text-anchor="start" x="222.63" y="-15.4" font-family="Times-12" font-size="14.00"> &#160;Declarations</text>
<polygon fill="#8dd3c7" stroke="transparent" points="312,-10 312,-30 332,-30 332,-10 312,-10"/>
<text text-anchor="start" x="335.73" y="-15.4" font-family="Times-12" font-size="14.00"> &#160;Module</text>
<polygon fill="#80b1d3" stroke="transparent" points="398,-10 398,-30 418,-30 418,-10 398,-10"/>
<text text-anchor="start" x="421.78" y="-15.4" font-family="Times-12" font-size="14.00"> &#160;Bootstrap</text>
<polygon fill="#fdb462" stroke="transparent" points="495,-10 495,-30 515,-30 515,-10 495,-10"/>
<text text-anchor="start" x="518.67" y="-15.4" font-family="Times-12" font-size="14.00"> &#160;Providers</text>
<polygon fill="#fb8072" stroke="transparent" points="591,-10 591,-30 611,-30 611,-10 591,-10"/>
<text text-anchor="start" x="614.73" y="-15.4" font-family="Times-12" font-size="14.00"> &#160;Exports</text>
<g id="clust1" class="cluster">
<title>cluster_AppModule</title>
<polygon fill="none" stroke="black" stroke-dasharray="1,5" points="8,-70 8,-266 418,-266 418,-70 8,-70"/>
</g>
<g id="clust3" class="cluster">
<title>cluster_AppModule_imports</title>
<polygon fill="none" stroke="black" points="292,-78 292,-198 400,-198 400,-78 292,-78"/>
</g>
<g id="clust6" class="cluster">
<title>cluster_AppModule_providers</title>
<polygon fill="none" stroke="black" points="16,-78 16,-130 284,-130 284,-78 16,-78"/>
</g>
<g id="clust7" class="cluster">
<title>cluster_AuthModule</title>
<polygon fill="none" stroke="black" stroke-dasharray="1,5" points="708,-70 708,-274 858,-274 858,-70 708,-70"/>
</g>
<g id="clust10" class="cluster">
<title>cluster_AuthModule_exports</title>
<polygon fill="none" stroke="black" points="730,-214 730,-266 836,-266 836,-214 730,-214"/>
</g>
<g id="clust12" class="cluster">
<title>cluster_AuthModule_providers</title>
<polygon fill="none" stroke="black" points="716,-78 716,-130 850,-130 850,-78 716,-78"/>
</g>
<g id="clust19" class="cluster">
<title>cluster_UsersModule</title>
<polygon fill="none" stroke="black" stroke-dasharray="1,5" points="426,-138 426,-206 700,-206 700,-138 426,-138"/>
</g>
<g id="clust22" class="cluster">
<title>cluster_UsersModule_exports</title>
<polygon fill="none" stroke="black" points="582,-146 582,-198 692,-198 692,-146 582,-146"/>
</g>
<g id="clust24" class="cluster">
<title>cluster_UsersModule_providers</title>
<polygon fill="none" stroke="black" points="434,-146 434,-198 574,-198 574,-146 434,-146"/>
</g>
<!-- PostsModule -->
<g id="node1" class="node">
<title>PostsModule</title>
<polygon fill="#8dd3c7" stroke="black" points="389.61,-190 386.61,-194 365.61,-194 362.61,-190 300.39,-190 300.39,-154 389.61,-154 389.61,-190"/>
<text text-anchor="middle" x="345" y="-167.8" font-family="Times,serif" font-size="14.00">PostsModule</text>
</g>
<!-- AppModule -->
<g id="node3" class="node">
<title>AppModule</title>
<polygon fill="#8dd3c7" stroke="black" points="353.66,-258 350.66,-262 329.66,-262 326.66,-258 270.34,-258 270.34,-222 353.66,-222 353.66,-258"/>
<text text-anchor="middle" x="312" y="-235.8" font-family="Times,serif" font-size="14.00">AppModule</text>
</g>
<!-- PostsModule&#45;&gt;AppModule -->
<g id="edge1" class="edge">
<title>PostsModule&#45;&gt;AppModule</title>
<path fill="none" stroke="black" d="M327.14,-190.22C327.14,-190.22 327.14,-211.73 327.14,-211.73"/>
<polygon fill="black" stroke="black" points="323.64,-211.73 327.14,-221.73 330.64,-211.73 323.64,-211.73"/>
</g>
<!-- UsersModule -->
<g id="node2" class="node">
<title>UsersModule</title>
<polygon fill="#8dd3c7" stroke="black" points="391.92,-122 388.92,-126 367.92,-126 364.92,-122 300.08,-122 300.08,-86 391.92,-86 391.92,-122"/>
<text text-anchor="middle" x="346" y="-99.8" font-family="Times,serif" font-size="14.00">UsersModule</text>
</g>
<!-- UsersModule&#45;&gt;PostsModule -->
<g id="edge7" class="edge">
<title>UsersModule&#45;&gt;PostsModule</title>
<path fill="none" stroke="black" d="M345,-122.22C345,-122.22 345,-143.73 345,-143.73"/>
<polygon fill="black" stroke="black" points="341.5,-143.73 345,-153.73 348.5,-143.73 341.5,-143.73"/>
</g>
<!-- UsersModule&#45;&gt;AppModule -->
<g id="edge2" class="edge">
<title>UsersModule&#45;&gt;AppModule</title>
<path fill="none" stroke="black" d="M300.24,-110C295.47,-110 292.32,-110 292.32,-110 292.32,-110 292.32,-211.92 292.32,-211.92"/>
<polygon fill="black" stroke="black" points="288.82,-211.92 292.32,-221.92 295.82,-211.92 288.82,-211.92"/>
</g>
<!-- UsersService  -->
<g id="node9" class="node">
<title>UsersService </title>
<polygon fill="#fb8072" stroke="black" points="683.85,-190 590.15,-190 590.15,-154 683.85,-154 683.85,-190"/>
<text text-anchor="middle" x="637" y="-167.8" font-family="Times,serif" font-size="14.00">UsersService </text>
</g>
<!-- UsersModule&#45;&gt;UsersService  -->
<g id="edge9" class="edge">
<title>UsersModule&#45;&gt;UsersService </title>
<path fill="none" stroke="black" stroke-dasharray="5,2" d="M391.79,-98C473.74,-98 637,-98 637,-98 637,-98 637,-143.71 637,-143.71"/>
<polygon fill="black" stroke="black" points="633.5,-143.71 637,-153.71 640.5,-143.71 633.5,-143.71"/>
</g>
<!-- AppService -->
<g id="node4" class="node">
<title>AppService</title>
<ellipse fill="#fdb462" stroke="black" cx="81" cy="-104" rx="56.74" ry="18"/>
<text text-anchor="middle" x="81" y="-99.8" font-family="Times,serif" font-size="14.00">AppService</text>
</g>
<!-- AppService&#45;&gt;AppModule -->
<g id="edge3" class="edge">
<title>AppService&#45;&gt;AppModule</title>
<path fill="none" stroke="black" d="M81,-122.06C81,-159.05 81,-240 81,-240 81,-240 260.17,-240 260.17,-240"/>
<polygon fill="black" stroke="black" points="260.17,-243.5 270.17,-240 260.17,-236.5 260.17,-243.5"/>
</g>
<!-- PostsService -->
<g id="node5" class="node">
<title>PostsService</title>
<ellipse fill="#fdb462" stroke="black" cx="216" cy="-104" rx="60.27" ry="18"/>
<text text-anchor="middle" x="216" y="-99.8" font-family="Times,serif" font-size="14.00">PostsService</text>
</g>
<!-- PostsService&#45;&gt;PostsModule -->
<g id="edge8" class="edge">
<title>PostsService&#45;&gt;PostsModule</title>
<path fill="none" stroke="black" d="M212.89,-122.22C212.89,-142.37 212.89,-172 212.89,-172 212.89,-172 290.27,-172 290.27,-172"/>
<polygon fill="black" stroke="black" points="290.28,-175.5 300.27,-172 290.27,-168.5 290.28,-175.5"/>
</g>
<!-- PostsService&#45;&gt;AppModule -->
<g id="edge4" class="edge">
<title>PostsService&#45;&gt;AppModule</title>
<path fill="none" stroke="black" d="M273.07,-98C279.81,-98 284.35,-98 284.35,-98 284.35,-98 284.35,-211.73 284.35,-211.73"/>
<polygon fill="black" stroke="black" points="280.85,-211.73 284.35,-221.73 287.85,-211.73 280.85,-211.73"/>
</g>
<!-- AuthService  -->
<g id="node6" class="node">
<title>AuthService </title>
<polygon fill="#fb8072" stroke="black" points="827.98,-258 738.02,-258 738.02,-222 827.98,-222 827.98,-258"/>
<text text-anchor="middle" x="783" y="-235.8" font-family="Times,serif" font-size="14.00">AuthService </text>
</g>
<!-- AuthModule -->
<g id="node7" class="node">
<title>AuthModule</title>
<polygon fill="#8dd3c7" stroke="black" points="826.55,-190 823.55,-194 802.55,-194 799.55,-190 739.45,-190 739.45,-154 826.55,-154 826.55,-190"/>
<text text-anchor="middle" x="783" y="-167.8" font-family="Times,serif" font-size="14.00">AuthModule</text>
</g>
<!-- AuthModule&#45;&gt;AuthService  -->
<g id="edge5" class="edge">
<title>AuthModule&#45;&gt;AuthService </title>
<path fill="none" stroke="black" stroke-dasharray="5,2" d="M783,-190.22C783,-190.22 783,-211.73 783,-211.73"/>
<polygon fill="black" stroke="black" points="779.5,-211.73 783,-221.73 786.5,-211.73 779.5,-211.73"/>
</g>
<!-- AuthService -->
<g id="node8" class="node">
<title>AuthService</title>
<ellipse fill="#fdb462" stroke="black" cx="783" cy="-104" rx="59.11" ry="18"/>
<text text-anchor="middle" x="783" y="-99.8" font-family="Times,serif" font-size="14.00">AuthService</text>
</g>
<!-- AuthService&#45;&gt;AuthModule -->
<g id="edge6" class="edge">
<title>AuthService&#45;&gt;AuthModule</title>
<path fill="none" stroke="black" d="M783,-122.22C783,-122.22 783,-143.73 783,-143.73"/>
<polygon fill="black" stroke="black" points="779.5,-143.73 783,-153.73 786.5,-143.73 779.5,-143.73"/>
</g>
<!-- UsersService -->
<g id="node10" class="node">
<title>UsersService</title>
<ellipse fill="#fdb462" stroke="black" cx="504" cy="-172" rx="61.95" ry="18"/>
<text text-anchor="middle" x="504" y="-167.8" font-family="Times,serif" font-size="14.00">UsersService</text>
</g>
<!-- UsersService&#45;&gt;UsersModule -->
<g id="edge10" class="edge">
<title>UsersService&#45;&gt;UsersModule</title>
<path fill="none" stroke="black" d="M504,-153.73C504,-135.44 504,-110 504,-110 504,-110 402.12,-110 402.12,-110"/>
<polygon fill="black" stroke="black" points="402.12,-106.5 392.12,-110 402.12,-113.5 402.12,-106.5"/>
</g>
</g>
</svg>
